<svg xmlns="http://www.w3.org/2000/svg" width="24" height="24" viewBox="0 0 24 24" fill="none" stroke="currentColor" stroke-width="2">
  <!-- 网络线（总线） -->
  <line x1="2" y1="8" x2="22" y2="8" stroke="#2196F3" stroke-width="2"/>
  <line x1="2" y1="16" x2="22" y2="16" stroke="#4CAF50" stroke-width="2"/>

  <!-- 上层网段的设备 -->
  <rect x="5" y="3" width="4" height="3" rx="0.5" fill="#2196F3" stroke="none"/>
  <rect x="13" y="3" width="4" height="3" rx="0.5" fill="#2196F3" stroke="none"/>

  <!-- 连接线 -->
  <line x1="7" y1="6" x2="7" y2="8" stroke="#2196F3" stroke-width="1"/>
  <line x1="15" y1="6" x2="15" y2="8" stroke="#2196F3" stroke-width="1"/>

  <!-- 下层网段的设备 -->
  <rect x="3" y="18" width="4" height="3" rx="0.5" fill="#4CAF50" stroke="none"/>
  <rect x="10" y="18" width="4" height="3" rx="0.5" fill="#4CAF50" stroke="none"/>
  <rect x="17" y="18" width="4" height="3" rx="0.5" fill="#4CAF50" stroke="none"/>

  <!-- 连接线 -->
  <line x1="5" y1="16" x2="5" y2="18" stroke="#4CAF50" stroke-width="1"/>
  <line x1="12" y1="16" x2="12" y2="18" stroke="#4CAF50" stroke-width="1"/>
  <line x1="19" y1="16" x2="19" y2="18" stroke="#4CAF50" stroke-width="1"/>

  <!-- 跨网段设备（路由器） -->
  <circle cx="10" cy="12" r="2" fill="#FF9800" stroke="none"/>
  <line x1="10" y1="8" x2="10" y2="10" stroke="#FF9800" stroke-width="1"/>
  <line x1="10" y1="14" x2="10" y2="16" stroke="#FF9800" stroke-width="1"/>
</svg>
